<?xml version="1.0" encoding="UTF-8"?>
<svg xmlns="http://www.w3.org/2000/svg" xmlns:xlink="http://www.w3.org/1999/xlink" width="125pt" height="125pt" viewBox="0 0 125 125" version="1.1">
<g id="surface1">
<path style=" stroke:none;fill-rule:nonzero;fill:rgb(100%,23.921569%,0%);fill-opacity:1;" d="M 106.769531 69.011719 C 106.769531 92.710938 87.503906 111.980469 63.800781 111.980469 C 57.554688 111.980469 51.820312 110.675781 46.609375 108.335938 L 49.996094 101.296875 C 54.167969 103.128906 59.113281 104.167969 64.066406 104.167969 C 83.070312 104.167969 98.957031 88.277344 98.957031 69.011719 C 98.957031 58.074219 93.75 48.175781 85.9375 41.667969 L 85.9375 70.578125 L 72.917969 57.554688 L 72.917969 39.0625 L 58.328125 70.3125 L 72.917969 70.3125 L 72.917969 65.105469 L 85.9375 78.125 L 72.917969 88.542969 L 72.917969 83.332031 L 52.347656 83.332031 L 39.0625 111.980469 L 23.4375 111.980469 L 62.5 33.855469 C 43.753906 34.636719 28.644531 49.996094 28.644531 69.011719 C 28.644531 74.21875 29.683594 79.164062 31.769531 83.597656 L 27.609375 92.183594 C 23.4375 85.417969 20.832031 77.605469 20.832031 69.011719 C 20.832031 45.308594 40.101562 26.042969 63.800781 26.042969 C 64.585938 26.042969 65.621094 26.042969 66.40625 26.042969 L 72.917969 13.019531 L 85.9375 13.019531 L 85.9375 32.289062 C 98.441406 39.847656 106.769531 53.386719 106.769531 69.011719 Z M 74.738281 93.75 L 85.9375 93.75 L 85.9375 84.898438 Z M 74.738281 93.75 "/>
</g>
</svg>
