<?xml version="1.0" encoding="UTF-8"?>
<svg xmlns="http://www.w3.org/2000/svg" xmlns:xlink="http://www.w3.org/1999/xlink" viewBox="0 0 48 48" version="1.1" width="480px" height="480px">
<g id="surface1">
<path style=" fill:#FF3D00;" d="M 41 26.5 C 41 35.601563 33.601563 43 24.5 43 C 22.101563 43 19.898438 42.5 17.898438 41.601563 L 19.199219 38.898438 C 20.800781 39.601563 22.699219 40 24.601563 40 C 31.898438 40 38 33.898438 38 26.5 C 38 22.300781 36 18.5 33 16 L 33 27.101563 L 28 22.101563 L 28 15 L 22.398438 27 L 28 27 L 28 25 L 33 30 L 28 34 L 28 32 L 20.101563 32 L 15 43 L 9 43 L 24 13 C 16.800781 13.300781 11 19.199219 11 26.5 C 11 28.5 11.398438 30.398438 12.199219 32.101563 L 10.601563 35.398438 C 9 32.800781 8 29.800781 8 26.5 C 8 17.398438 15.398438 10 24.5 10 C 24.800781 10 25.199219 10 25.5 10 L 28 5 L 33 5 L 33 12.398438 C 37.800781 15.300781 41 20.5 41 26.5 Z M 28.699219 36 L 33 36 L 33 32.601563 Z "/>
</g>
</svg>
